<svg width="320" height="320" viewBox="0 0 320 320" fill="none" xmlns="http://www.w3.org/2000/svg">
  <rect width="320" height="320" rx="32" fill="#FFFFFF"/>
  <path d="M101 213C115 180 131 156 151 140C175 120 202 111 234 112C217 127 209 140 210 152C210 166 219 177 236 186C211 184 191 189 176 201C164 210 154 224 145 244L101 213Z" fill="#1E4D95"/>
  <path d="M90 206C119 172 133 133 128 88C160 101 182 120 192 146C201 169 197 193 180 217L90 206Z" fill="none" stroke="#1E4D95" stroke-width="12" stroke-linecap="round" stroke-linejoin="round"/>
  <path d="M120 206C138 198 153 188 164 176C174 164 180 149 183 132" stroke="#1E4D95" stroke-width="10" stroke-linecap="round"/>
  <path d="M111 158C126 165 138 175 146 188" stroke="#1E4D95" stroke-width="10" stroke-linecap="round"/>
  <text x="160" y="280" text-anchor="middle" font-family="Arial, sans-serif" font-size="28" font-weight="700" fill="#1E4D95">의대</text>
</svg>
