<svg width="320" height="320" viewBox="0 0 320 320" fill="none" xmlns="http://www.w3.org/2000/svg">
  <rect width="320" height="320" rx="32" fill="#FFFFFF"/>
  <path d="M84 246C55 221 38 184 38 145C38 107 55 72 84 48" stroke="#111111" stroke-width="10" stroke-linecap="round"/>
  <path d="M236 48C265 72 282 107 282 145C282 184 265 221 236 246" stroke="#111111" stroke-width="10" stroke-linecap="round"/>
  <path d="M101 223C82 203 71 176 71 145C71 114 82 87 101 67" stroke="#111111" stroke-width="6" stroke-linecap="round"/>
  <path d="M219 67C238 87 249 114 249 145C249 176 238 203 219 223" stroke="#111111" stroke-width="6" stroke-linecap="round"/>
  <path d="M112 108H208V201H112V108Z" fill="#FFFFFF" stroke="#111111" stroke-width="8"/>
  <path d="M136 108L160 85L184 108" stroke="#111111" stroke-width="8" stroke-linecap="round" stroke-linejoin="round"/>
  <text x="160" y="166" text-anchor="middle" font-family="Georgia, serif" font-size="52" font-weight="700" fill="#111111">PS</text>
  <text x="160" y="277" text-anchor="middle" font-family="Arial, sans-serif" font-size="28" font-weight="700" fill="#111111">약대</text>
</svg>
