<svg width="320" height="320" viewBox="0 0 320 320" fill="none" xmlns="http://www.w3.org/2000/svg">
  <rect width="320" height="320" rx="32" fill="#FFFFFF"/>
  <circle cx="160" cy="145" r="58" stroke="#0B5BA7" stroke-width="8"/>
  <path d="M160 73V214" stroke="#0B5BA7" stroke-width="12" stroke-linecap="round"/>
  <path d="M129 109C141 91 179 91 191 109C200 122 196 140 181 151L168 160L182 173C196 185 200 203 190 216C177 233 144 233 130 217" stroke="#0B5BA7" stroke-width="10" stroke-linecap="round" stroke-linejoin="round"/>
  <path d="M76 95C53 113 40 140 40 170C40 200 53 227 76 245" stroke="#0B5BA7" stroke-width="8" stroke-linecap="round"/>
  <path d="M244 95C267 113 280 140 280 170C280 200 267 227 244 245" stroke="#0B5BA7" stroke-width="8" stroke-linecap="round"/>
  <path d="M69 87C56 102 47 120 44 139" stroke="#0B5BA7" stroke-width="5" stroke-linecap="round"/>
  <path d="M251 87C264 102 273 120 276 139" stroke="#0B5BA7" stroke-width="5" stroke-linecap="round"/>
  <text x="160" y="283" text-anchor="middle" font-family="Arial, sans-serif" font-size="28" font-weight="700" fill="#0B5BA7">보건계열</text>
</svg>
