<svg width="320" height="320" viewBox="0 0 320 320" fill="none" xmlns="http://www.w3.org/2000/svg">
  <rect width="320" height="320" rx="32" fill="#FFFFFF"/>
  <path d="M101 204C123 186 143 176 160 174C177 176 197 186 219 204L225 214C197 212 175 217 160 229C145 217 123 212 95 214L101 204Z" fill="#25A18E"/>
  <path d="M95 214L64 140L142 190L160 229C140 220 117 216 95 214Z" fill="#2CB7A0"/>
  <path d="M225 214L256 140L178 190L160 229C180 220 203 216 225 214Z" fill="#2CB7A0"/>
  <path d="M160 66C175 66 189 79 189 96C189 109 181 120 169 124V146H183C201 146 215 160 215 178V186H191V179C191 170 184 162 175 162H169V215H151V162H145C136 162 129 170 129 179V186H105V178C105 160 119 146 137 146H151V124C139 120 131 109 131 96C131 79 145 66 160 66Z" fill="#20376F"/>
  <text x="160" y="276" text-anchor="middle" font-family="Arial, sans-serif" font-size="28" font-weight="700" fill="#222222">수의대</text>
</svg>
